HIERARCHY
ROOT Hips
{
 OFFSET 0.000000 0.000000 0.000000
 CHANNELS 6 Xposition Yposition Zposition Yrotation Xrotation Zrotation
 JOINT Chest
 {
  OFFSET 0.000000 10.385163 0.011643
  CHANNELS 3 Yrotation Xrotation Zrotation
  JOINT Chest2
  {
   OFFSET 0.000000 11.579334 -0.021150
   CHANNELS 3 Yrotation Xrotation Zrotation
   JOINT Chest3
   {
    OFFSET 0.000000 10.463212 0.000000
    CHANNELS 3 Yrotation Xrotation Zrotation
    JOINT Chest4
    {
     OFFSET 0.000000 10.463212 0.000000
     CHANNELS 3 Yrotation Xrotation Zrotation
     JOINT Neck
     {
      OFFSET 0.000000 14.544862 0.000000
      CHANNELS 3 Yrotation Xrotation Zrotation
      JOINT Head
      {
       OFFSET 0.000000 9.730630 -0.050295
       CHANNELS 3 Yrotation Xrotation Zrotation
       End Site
       {
        OFFSET 0.000000 18.757589 -0.026270
       }
      }
     }
     JOINT RightCollar
     {
      OFFSET -2.985174 8.102313 0.000000
      CHANNELS 3 Yrotation Xrotation Zrotation
      JOINT RightShoulder
      {
       OFFSET -13.558590 0.000000 0.000000
       CHANNELS 3 Yrotation Xrotation Zrotation
       JOINT RightElbow
       {
        OFFSET -28.208579 0.000000 0.000000
        CHANNELS 3 Yrotation Xrotation Zrotation
        JOINT RightWrist
        {
         OFFSET -23.322907 0.000000 0.010349
         CHANNELS 3 Yrotation Xrotation Zrotation
         End Site
         {
          OFFSET -17.603338 0.000000 0.000000
         }
        }
       }
      }
     }
     JOINT LeftCollar
     {
      OFFSET 2.985174 8.102313 0.000000
      CHANNELS 3 Yrotation Xrotation Zrotation
      JOINT LeftShoulder
      {
       OFFSET 13.558590 0.000000 0.000000
       CHANNELS 3 Yrotation Xrotation Zrotation
       JOINT LeftElbow
       {
        OFFSET 28.208579 0.000000 0.000000
        CHANNELS 3 Yrotation Xrotation Zrotation
        JOINT LeftWrist
        {
         OFFSET 23.322907 0.000000 0.010349
         CHANNELS 3 Yrotation Xrotation Zrotation
         End Site
         {
          OFFSET 17.603338 0.000000 0.000000
         }
        }
       }
      }
     }
    }
   }
  }
 }
 JOINT RightHip
 {
  OFFSET -8.341224 -0.057053 -0.005822
  CHANNELS 3 Yrotation Xrotation Zrotation
  JOINT RightKnee
  {
   OFFSET 0.000000 -44.280013 0.005508
   CHANNELS 3 Yrotation Xrotation Zrotation
   JOINT RightAnkle
   {
    OFFSET 0.000000 -43.261728 0.009315
    CHANNELS 3 Yrotation Xrotation Zrotation
    JOINT RightToe
    {
     OFFSET 0.000000 -8.082955 18.257715
     CHANNELS 3 Yrotation Xrotation Zrotation
     End Site
     {
      OFFSET 0.000000 -1.634678 7.189621
     }
    }
   }
  }
 }
 JOINT LeftHip
 {
  OFFSET 8.341224 -0.057053 -0.005822
  CHANNELS 3 Yrotation Xrotation Zrotation
  JOINT LeftKnee
  {
   OFFSET 0.000000 -44.280013 0.005508
   CHANNELS 3 Yrotation Xrotation Zrotation
   JOINT LeftAnkle
   {
    OFFSET 0.000000 -43.261728 0.009315
    CHANNELS 3 Yrotation Xrotation Zrotation
    JOINT LeftToe
    {
     OFFSET 0.000000 -8.082955 18.257715
     CHANNELS 3 Yrotation Xrotation Zrotation
     End Site
     {
      OFFSET 0.000000 -1.634678 7.189621
     }
    }
   }
  }
 }
}
MOTION
Frames: 12
Frame Time: 0.016667
-45.769891 98.179339 -605.669261 -153.664748 3.052043 -9.769514 -2.933310 5.816021 0.781432 -1.311770 2.579931 0.383646 -1.311770 2.579931 0.383646 -0.985282 1.934136 0.293228 -2.573559 10.109640 3.976238 -6.819425 -17.075156 8.896984 0.498097 -3.989297 5.793519 -14.003217 -2.268583 74.832666 5.343741 4.968655 2.905044 15.279952 -3.196985 -9.191428 1.450907 -3.244333 -10.642020 -5.493608 -14.482127 -68.131791 -12.069483 3.559848 -7.214811 -6.548514 -6.077882 2.546642 -0.427911 -12.305793 7.587182 -3.306312 10.291376 3.074638 6.489106 2.705624 26.568534 0.000000 0.000000 0.000000 12.750794 -4.831295 9.175793 -1.659084 10.932926 1.382066 7.022530 -10.835994 -3.554405 0.000000 0.000000 0.000000
-44.989368 98.353185 -605.478300 -154.280912 3.367893 -10.232345 -2.828821 5.851376 0.746715 -1.264968 2.595991 0.367133 -1.264951 2.595963 0.367131 -0.950100 1.946205 0.280677 -2.551087 10.014405 3.915122 -6.759611 -17.260029 8.779460 0.541366 -3.934920 5.758891 -13.572277 -2.119149 75.087372 5.972646 6.141159 3.461052 15.178929 -2.945930 -8.578188 1.387470 -3.019444 -10.463542 -6.360091 -14.807575 -67.560371 -10.315353 2.342347 -6.061206 -5.078945 -6.080477 2.102021 1.379252 -13.064827 7.033602 -1.451783 10.219458 3.339925 6.745434 1.307434 27.654480 0.000000 -0.000000 -0.000000 13.515500 -5.361008 9.763506 -2.207546 10.157005 1.436148 7.293731 -10.141115 -3.820062 0.000000 0.000000 0.000000
-44.293251 98.508608 -605.329687 -155.023594 3.479017 -10.591854 -2.571656 5.954360 0.738873 -1.150843 2.642248 0.360962 -1.150833 2.642238 0.360960 -0.864528 1.981003 0.275651 -2.597390 9.902766 3.737102 -6.780513 -17.479475 8.467846 0.687925 -3.847647 5.637865 -13.100564 -1.985249 75.131050 6.790205 7.639274 4.145598 14.980755 -2.579048 -7.753619 1.352780 -2.835482 -10.343833 -7.006433 -15.219878 -67.267237 -8.499483 1.869465 -4.582949 -3.131248 -5.726023 1.457466 3.692979 -13.612348 6.265829 0.599782 10.186425 3.458224 6.337955 -0.465001 27.220697 0.000000 0.000000 0.000000 15.724732 -5.639184 10.121481 -4.339723 8.978102 1.497750 7.889888 -9.352424 -4.147035 0.000000 0.000000 0.000000
-43.648203 98.616461 -605.224973 -155.774791 3.481712 -10.775662 -2.322978 6.036414 0.699521 -1.040070 2.679331 0.340707 -1.040070 2.679331 0.340707 -0.781406 2.008927 0.260047 -2.621275 9.831031 3.543595 -6.745747 -17.628556 8.110994 0.817167 -3.805421 5.556982 -12.803278 -1.963230 74.994154 7.683693 9.349554 4.867925 14.902994 -2.308487 -7.021665 1.348860 -2.764231 -10.276298 -7.147374 -15.498947 -67.252520 -6.774139 1.893461 -3.057291 -1.560521 -5.158243 1.163386 5.474336 -13.913910 5.499512 1.488289 10.452780 3.211714 5.385168 -1.734114 26.018384 -0.000000 0.000000 -0.000000 17.515644 -5.671586 10.400280 -5.901137 7.818472 1.519158 8.378852 -8.624025 -4.426589 0.000000 -0.000000 0.000000
-43.053207 98.661373 -605.174327 -156.514512 3.388174 -10.732595 -2.142601 6.066888 0.601790 -0.958772 2.693587 0.295121 -0.958773 2.693578 0.295120 -0.720249 2.019721 0.225528 -2.579203 9.823836 3.350183 -6.575945 -17.664162 7.716923 0.898735 -3.848813 5.576617 -12.826416 -2.098732 74.605197 8.683842 11.464765 5.708520 15.057731 -2.237263 -6.427960 1.388733 -2.879311 -10.274598 -6.521153 -15.550446 -67.611136 -5.196434 2.600754 -1.438935 -0.650465 -4.345797 1.458740 6.466460 -13.914291 4.895228 0.174928 11.180526 2.291706 3.610935 -2.233509 24.112523 -0.000000 0.000000 -0.000000 18.160675 -5.342861 10.660896 -6.040721 6.751594 1.459612 8.616613 -7.992051 -4.619134 0.000000 0.000000 0.000000
-42.509279 98.658715 -605.167579 -157.262582 3.193757 -10.509855 -1.971027 6.077508 0.474422 -0.880965 2.699081 0.236389 -0.880965 2.699077 0.236386 -0.661646 2.023969 0.181148 -2.513444 9.856484 3.140435 -6.348377 -17.628741 7.276169 0.963581 -3.936031 5.637973 -13.021567 -2.346714 74.039669 9.786818 13.774558 6.649002 15.321036 -2.267330 -5.941224 1.457704 -3.107869 -10.323405 -5.385648 -15.465102 -68.256035 -3.688604 3.798744 0.321308 -0.111428 -3.409464 2.113757 6.916401 -13.680613 4.319649 -2.329544 12.190784 0.954382 1.266287 -2.452493 21.591346 0.000000 0.000000 0.000000 18.386053 -4.747127 10.857012 -5.609455 5.714199 1.335872 8.750627 -7.422922 -4.772787 0.000000 0.000000 0.000000
-41.986133 98.625448 -605.175771 -157.962221 2.970226 -10.185769 -1.791343 6.074386 0.343693 -0.799505 2.698389 0.176009 -0.799505 2.698389 0.176009 -0.600296 2.023566 0.135515 -2.460627 9.911553 2.967132 -6.160568 -17.546372 6.910207 0.984590 -4.021871 5.689386 -13.163726 -2.660503 73.549185 10.759640 15.583063 7.414310 15.513112 -2.301987 -5.747054 1.516430 -3.300682 -10.374485 -4.232791 -15.300768 -68.921667 -2.243279 4.705181 1.889587 0.093482 -2.807679 2.939926 6.537657 -13.390664 3.549923 -4.276994 13.316514 -0.142274 -0.731313 -2.622554 19.308440 0.000000 0.000000 0.000000 18.506714 -4.184885 11.000476 -5.014340 4.930745 1.142331 8.788873 -6.969192 -4.922368 0.000000 0.000000 0.000000
-41.479273 98.558686 -605.187494 -158.578845 2.727049 -9.759449 -1.605534 6.060986 0.206090 -0.715236 2.693038 0.112463 -0.715235 2.693031 0.112465 -0.536823 2.019640 0.087487 -2.430581 9.994497 2.862226 -6.046150 -17.404032 6.685157 0.945536 -4.098320 5.720612 -13.216684 -3.030815 73.210302 11.491769 16.707630 7.856156 15.558718 -2.304076 -6.002870 1.545976 -3.389949 -10.403724 -3.171659 -15.094998 -69.561918 -0.850083 5.058843 3.113720 -0.220250 -2.808193 4.048826 4.872429 -13.121382 2.483041 -4.980060 14.628474 -0.714542 -2.104832 -2.662339 17.440339 0.000000 0.000000 -0.000000 18.700902 -3.783216 11.094109 -4.412428 4.536391 0.832032 8.660592 -6.673566 -5.069665 0.000000 0.000000 0.000000
-40.993195 98.461316 -605.214159 -159.148803 2.457058 -9.231675 -1.410863 6.035335 0.065865 -0.627007 2.682151 0.047601 -0.627005 2.682141 0.047598 -0.470377 2.011552 0.038444 -2.413829 10.100760 2.793911 -5.972629 -17.214138 6.535335 0.862954 -4.174168 5.741348 -13.215017 -3.462568 72.945781 12.031352 17.357693 8.067086 15.512631 -2.294626 -6.540525 1.565170 -3.443291 -10.436198 -2.097333 -14.804756 -70.218268 0.448734 5.151138 4.109503 -0.875195 -3.160412 5.285408 2.382652 -12.887194 1.197279 -5.089088 16.090617 -1.082799 -3.129493 -2.587316 15.750153 0.000000 0.000000 0.000000 18.788040 -3.416706 11.137603 -3.652043 4.401803 0.451158 8.437722 -6.493711 -5.214892 0.000000 0.000000 0.000000
-40.511091 98.358959 -605.261033 -159.720155 2.204253 -8.685286 -1.183852 5.995975 -0.039568 -0.524903 2.664972 -0.002246 -0.524903 2.664972 -0.002246 -0.393596 1.998733 0.000606 -2.418069 10.197896 2.719360 -5.938015 -17.039796 6.384101 0.759069 -4.230161 5.729146 -13.046680 -3.920717 72.774188 12.339481 17.445958 8.072450 15.388499 -2.267079 -7.045544 1.590695 -3.514343 -10.498574 -1.181675 -14.385992 -70.766081 1.561029 5.052628 4.889062 -1.276947 -3.515816 6.060034 0.161587 -12.739858 -0.242844 -4.823136 17.462249 -1.400573 -3.659163 -2.489435 14.433237 -0.000000 -0.000000 0.000000 18.546603 -3.010612 11.141779 -2.678120 4.348486 0.139361 8.341422 -6.354307 -5.388588 0.000000 0.000000 0.000000
-40.046447 98.258231 -605.319974 -160.354885 1.996493 -8.131854 -0.887542 5.928446 -0.096905 -0.392689 2.635029 -0.031637 -0.392691 2.635028 -0.031625 -0.294329 1.976296 -0.022012 -2.456314 10.277767 2.628830 -5.963716 -16.895901 6.219166 0.629662 -4.259874 5.661730 -12.646323 -4.393736 72.717910 12.326533 16.773705 7.798210 15.177612 -2.212842 -7.414273 1.637400 -3.630692 -10.622765 -0.569885 -13.800111 -71.122264 2.463376 4.598496 5.400797 -1.162712 -3.787858 6.101574 -1.485043 -12.717938 -1.863338 -4.046883 18.715407 -1.620528 -3.422549 -2.328511 13.598359 0.000000 -0.000000 0.000000 17.678827 -2.502449 11.075542 -1.258765 4.323743 -0.054400 8.508661 -6.237187 -5.595621 0.000000 0.000000 0.000000
-39.585777 98.152518 -605.399125 -160.990498 1.806965 -7.560300 -0.558657 5.849465 -0.119222 -0.246463 2.599870 -0.045843 -0.246464 2.599861 -0.045829 -0.184620 1.949913 -0.033308 -2.515494 10.348238 2.532054 -6.028156 -16.768262 6.052651 0.479281 -4.270782 5.560738 -12.080754 -4.887852 72.750150 12.096062 15.547128 7.292407 14.898354 -2.144782 -7.754948 1.692429 -3.763684 -10.777382 -0.121114 -13.095299 -71.368460 3.187586 3.983401 5.669529 -0.769939 -4.019298 5.692007 -2.862139 -12.767378 -3.621500 -2.873354 19.865617 -1.719555 -2.656084 -2.054390 13.097573 0.000000 0.000000 -0.000000 16.480754 -1.970691 10.949626 0.371769 4.381340 -0.176884 8.802185 -6.159053 -5.830016 0.000000 0.000000 0.000000
